<?xml version="1.0" encoding="utf-8"?>
<!-- Generator: Adobe Illustrator 25.2.0, SVG Export Plug-In . SVG Version: 6.00 Build 0)  -->
<svg version="1.1" xmlns="http://www.w3.org/2000/svg" xmlns:xlink="http://www.w3.org/1999/xlink" x="0px" y="0px"
	 viewBox="0 0 16.8 16.8" style="enable-background:new 0 0 16.8 16.8;" xml:space="preserve">
<style type="text/css">
	.st0{fill:url(#SVGID_1_);}
	.st1{fill:#FFFFFF;}
	.st2{fill:url(#SVGID_2_);}
	.st3{fill:url(#SVGID_3_);}
	.st4{fill:url(#SVGID_4_);}
</style>
<g id="BACKGROUND">
</g>
<g id="ELEMENTS">
	
		<linearGradient id="SVGID_1_" gradientUnits="userSpaceOnUse" x1="-82.8344" y1="146.6942" x2="-59.0357" y2="170.4929" gradientTransform="matrix(0 1 -1 0 164.4659 81.825)">
		<stop  offset="0" style="stop-color:#4676ED"/>
		<stop  offset="0.1854" style="stop-color:#436DE4"/>
		<stop  offset="0.487" style="stop-color:#3C55CD"/>
		<stop  offset="0.8651" style="stop-color:#302EA8"/>
		<stop  offset="1" style="stop-color:#2B1E99"/>
	</linearGradient>
	<path class="st0" d="M0,14.7L0,2c0-1.1,0.9-2,2-2l12.7,0c1.1,0,2,0.9,2,2l0,12.7c0,1.1-0.9,2-2,2L2,16.8C0.9,16.8,0,15.9,0,14.7z"
		/>
	<g>
		<path class="st1" d="M10.9,9.1l0.3-1.9H9.3V5.9c0-0.5,0.3-1.1,1.1-1.1h0.8V3.2c0,0-0.8-0.1-1.5-0.1C8.2,3.1,7.2,4,7.2,5.7v1.5H5.5
			v1.9h1.7v4.6h2.1V9.1H10.9z"/>
	</g>
</g>
</svg>
