<?xml version="1.0" encoding="utf-8"?>
<!-- Generator: Adobe Illustrator 25.2.0, SVG Export Plug-In . SVG Version: 6.00 Build 0)  -->
<svg version="1.1" xmlns="http://www.w3.org/2000/svg" xmlns:xlink="http://www.w3.org/1999/xlink" x="0px" y="0px"
	 viewBox="0 0 16.8 16.8" style="enable-background:new 0 0 16.8 16.8;" xml:space="preserve">
<style type="text/css">
	.st0{fill:url(#SVGID_1_);}
	.st1{fill:#FFFFFF;}
	.st2{fill:url(#SVGID_2_);}
	.st3{fill:url(#SVGID_3_);}
	.st4{fill:url(#SVGID_4_);}
</style>
<g id="BACKGROUND">
</g>
<g id="ELEMENTS">
	
		<linearGradient id="SVGID_1_" gradientUnits="userSpaceOnUse" x1="-106.8916" y1="122.0639" x2="-83.0929" y2="145.8625" gradientTransform="matrix(0 1 -1 0 139.8355 105.8822)">
		<stop  offset="1.104800e-03" style="stop-color:#FBE18A"/>
		<stop  offset="0.2094" style="stop-color:#FCBB45"/>
		<stop  offset="0.3765" style="stop-color:#F75274"/>
		<stop  offset="0.5238" style="stop-color:#D53692"/>
		<stop  offset="0.7394" style="stop-color:#8F39CE"/>
		<stop  offset="1" style="stop-color:#5B4FE9"/>
	</linearGradient>
	<path class="st0" d="M0,14.7L0,2c0-1.1,0.9-2,2-2l12.7,0c1.1,0,2,0.9,2,2l0,12.7c0,1.1-0.9,2-2,2L2,16.8C0.9,16.8,0,15.9,0,14.7z"
		/>
	<g>
		<path class="st1" d="M11,5.2c-0.3,0-0.6,0.3-0.6,0.6c0,0.3,0.3,0.6,0.6,0.6c0.3,0,0.6-0.3,0.6-0.6C11.6,5.5,11.3,5.2,11,5.2z"/>
		<path class="st1" d="M8.4,6C7.1,6,6,7,6,8.4c0,1.3,1.1,2.4,2.4,2.4c1.3,0,2.4-1.1,2.4-2.4C10.8,7,9.8,6,8.4,6z M8.4,9.9
			c-0.9,0-1.6-0.7-1.6-1.6s0.7-1.6,1.6-1.6c0.9,0,1.6,0.7,1.6,1.6S9.3,9.9,8.4,9.9z"/>
		<path class="st1" d="M10.3,13.3H6.4c-1.6,0-3-1.3-3-3V6.4c0-1.6,1.3-3,3-3h3.9c1.6,0,3,1.3,3,3v3.9C13.3,12,12,13.3,10.3,13.3z
			 M6.4,4.4c-1.1,0-2,0.9-2,2v3.9c0,1.1,0.9,2,2,2h3.9c1.1,0,2-0.9,2-2V6.4c0-1.1-0.9-2-2-2H6.4z"/>
	</g>
</g>
</svg>
