<?xml version="1.0" encoding="utf-8"?>
<!-- Generator: Adobe Illustrator 25.2.0, SVG Export Plug-In . SVG Version: 6.00 Build 0)  -->
<svg version="1.1" xmlns="http://www.w3.org/2000/svg" xmlns:xlink="http://www.w3.org/1999/xlink" x="0px" y="0px"
	 viewBox="0 0 16.8 16.8" style="enable-background:new 0 0 16.8 16.8;" xml:space="preserve">
<style type="text/css">
	.st0{fill:url(#SVGID_1_);}
	.st1{fill:#FFFFFF;}
	.st2{fill:url(#SVGID_2_);}
	.st3{fill:url(#SVGID_3_);}
	.st4{fill:url(#SVGID_4_);}
</style>
<g id="BACKGROUND">
</g>
<g id="ELEMENTS">
	
		<linearGradient id="SVGID_1_" gradientUnits="userSpaceOnUse" x1="-209.3498" y1="122.4729" x2="-193.7742" y2="138.0486" gradientTransform="matrix(0 1 -1 0 138.6418 209.9431)">
		<stop  offset="0" style="stop-color:#007AB5"/>
		<stop  offset="1" style="stop-color:#0046E5"/>
	</linearGradient>
	<path class="st0" d="M0,14.7V2c0-1.1,0.9-2,2-2h12.7c1.1,0,2,0.9,2,2l0,12.7c0,1.1-0.9,2-2,2L2,16.8C0.9,16.8,0,15.9,0,14.7z"/>
	<g>
		<path class="st1" d="M4.9,6.8h1.6V12H4.9V6.8z M5.7,4.2c0.5,0,0.9,0.4,0.9,0.9c0,0.5-0.4,0.9-0.9,0.9c-0.5,0-0.9-0.4-0.9-0.9
			C4.7,4.7,5.2,4.2,5.7,4.2"/>
		<path class="st1" d="M7.5,6.8h1.6v0.7h0c0.2-0.4,0.7-0.8,1.5-0.8c1.6,0,1.9,1.1,1.9,2.5V12h-1.6V9.5c0-0.6,0-1.4-0.8-1.4
			c-0.8,0-1,0.7-1,1.3V12H7.5V6.8z"/>
	</g>
</g>
</svg>
