<?xml version="1.0" encoding="utf-8"?>
<!-- Generator: Adobe Illustrator 25.2.0, SVG Export Plug-In . SVG Version: 6.00 Build 0)  -->
<svg version="1.1" xmlns="http://www.w3.org/2000/svg" xmlns:xlink="http://www.w3.org/1999/xlink" x="0px" y="0px"
	 viewBox="0 0 16.8 16.8" style="enable-background:new 0 0 16.8 16.8;" xml:space="preserve">
<style type="text/css">
	.st0{fill:url(#SVGID_1_);}
	.st1{fill:#FFFFFF;}
	.st2{fill:url(#SVGID_2_);}
	.st3{fill:url(#SVGID_3_);}
	.st4{fill:url(#SVGID_4_);}
</style>
<g id="BACKGROUND">
</g>
<g id="ELEMENTS">
	
		<linearGradient id="SVGID_1_" gradientUnits="userSpaceOnUse" x1="-99.7387" y1="111.9059" x2="-84.1731" y2="127.4715" gradientTransform="matrix(0 1 -1 0 128.0698 100.337)">
		<stop  offset="0" style="stop-color:#33CCFF"/>
		<stop  offset="1" style="stop-color:#337FFF"/>
	</linearGradient>
	<path class="st0" d="M0,14.7V2c0-1.1,0.9-2,2-2h12.7c1.1,0,2,0.9,2,2v12.7c0,1.1-0.9,2-2,2H2C0.9,16.8,0,15.8,0,14.7z"/>
	<path class="st1" d="M13,5.5c-0.3,0.1-0.6,0.2-0.9,0.3c0.1,0,0.4-0.3,0.5-0.4c0.1-0.2,0.2-0.4,0.3-0.6c0,0,0,0,0,0c0,0,0,0,0,0
		c-0.3,0.2-0.7,0.3-1.1,0.4c0,0-0.1,0-0.1,0c0,0-0.1-0.1-0.1-0.1c-0.2-0.1-0.3-0.2-0.5-0.3c-0.3-0.1-0.5-0.1-0.8-0.1
		c-0.3,0-0.5,0.1-0.8,0.2C9.2,5,9,5.1,8.8,5.3C8.6,5.6,8.5,5.8,8.4,6.1c-0.1,0.3-0.1,0.5,0,0.8c0,0,0,0,0,0C6.9,6.7,5.6,6.2,4.6,5
		c0-0.1-0.1-0.1-0.1,0C4,5.7,4.3,6.7,4.8,7.3C4.9,7.3,5,7.4,5,7.5c0,0-0.4,0-0.7-0.2c0,0-0.1,0-0.1,0c0,0.1,0,0.1,0,0.2
		c0.1,0.7,0.6,1.3,1.2,1.5c0.1,0,0.2,0.1,0.2,0.1c-0.1,0-0.3,0.1-0.7,0c-0.1,0-0.1,0-0.1,0.1c0.3,0.9,1,1.1,1.5,1.3
		c0.1,0,0.1,0,0.2,0c0,0,0,0,0,0c-0.2,0.3-0.8,0.4-1,0.5c-0.5,0.2-1,0.3-1.6,0.2c-0.1,0-0.1,0-0.1,0c0,0,0,0,0,0.1
		c0.1,0.1,0.2,0.1,0.3,0.2c0.3,0.2,0.7,0.3,1,0.4c1.9,0.5,4,0.1,5.4-1.3c1.1-1.1,1.5-2.6,1.5-4.1c0-0.1,0.1-0.1,0.1-0.1
		C12.6,6.2,12.8,6,13,5.7C13,5.6,13,5.5,13,5.5C13,5.5,13,5.5,13,5.5C13,5.5,13,5.5,13,5.5z"/>
</g>
</svg>
